<svg width="31" height="31" viewBox="0 0 31 31" fill="none" xmlns="http://www.w3.org/2000/svg">
<path fill-rule="evenodd" clip-rule="evenodd" d="M15.36 30.9199C23.6442 30.9199 30.36 24.2041 30.36 15.9199C30.36 7.63572 23.6442 0.919922 15.36 0.919922C7.07579 0.919922 0.359985 7.63572 0.359985 15.9199C0.359985 24.2041 7.07579 30.9199 15.36 30.9199ZM7.85999 11.1199C7.98179 16.9663 10.905 20.4799 16.0299 20.4799H16.3203V17.1349C18.2037 17.3224 19.6275 18.6997 20.1993 20.4799H22.86C22.1292 17.8189 20.2086 16.348 19.0092 15.7858C20.2086 15.0925 21.8949 13.4059 22.2978 11.1199H19.8804C19.3557 12.9751 17.8008 14.6614 16.3203 14.8207V11.1199H13.9032V17.6032C12.4041 17.2285 10.5114 15.4111 10.4268 11.1199H7.85999Z" fill="white"/>
</svg>
