<svg width="31" height="31" viewBox="0 0 31 31" fill="none" xmlns="http://www.w3.org/2000/svg">
<path fill-rule="evenodd" clip-rule="evenodd" d="M15.36 30.9199C23.6442 30.9199 30.36 24.2042 30.36 15.9199C30.36 7.63566 23.6442 0.919922 15.36 0.919922C7.07573 0.919922 0.359985 7.63566 0.359985 15.9199C0.359985 24.2042 7.07573 30.9199 15.36 30.9199ZM21.2888 9.61776C19.7451 8.07222 17.6922 7.22073 15.5049 7.21992C10.9985 7.21992 7.33037 10.8875 7.32875 15.3956C7.32821 16.8366 7.70468 18.2433 8.42003 19.483L7.25999 23.7199L11.5943 22.5831C12.7884 23.2346 14.1332 23.5778 15.5014 23.5783H15.5047C20.0109 23.5783 23.679 19.9102 23.6809 15.4024C23.6822 13.2174 22.8327 11.1633 21.2888 9.61776ZM19.2326 17.1076C19.0282 17.0053 18.024 16.5112 17.8365 16.443C17.6494 16.3748 17.513 16.3406 17.3768 16.5453C17.2407 16.7499 16.8492 17.2099 16.73 17.3463C16.6107 17.4827 16.4915 17.4996 16.2874 17.3973C16.254 17.3806 16.2085 17.3608 16.1523 17.3364C15.8646 17.2116 15.2971 16.9656 14.6445 16.3832C14.0372 15.8414 13.6272 15.1724 13.5079 14.9681C13.3887 14.7635 13.4951 14.653 13.5974 14.5512C13.6587 14.4901 13.7292 14.4043 13.7996 14.3185C13.8347 14.2757 13.8698 14.233 13.9038 14.1933C13.9903 14.0922 14.028 14.0154 14.079 13.9114C14.0882 13.8927 14.0978 13.8732 14.1081 13.8525C14.1763 13.7161 14.1423 13.5969 14.0912 13.4946C14.0571 13.4262 13.8635 12.9549 13.6879 12.5276C13.6006 12.3151 13.5178 12.1135 13.4613 11.9777C13.3148 11.626 13.1665 11.6269 13.0474 11.6276C13.0316 11.6278 13.0163 11.6279 13.0016 11.6271C12.8826 11.6211 12.7462 11.62 12.6101 11.62C12.4739 11.62 12.2527 11.671 12.0652 11.8757C12.0532 11.8889 12.0397 11.9033 12.025 11.9189C11.8121 12.1462 11.3502 12.6394 11.3502 13.58C11.3502 14.5831 12.0786 15.5524 12.1837 15.6923L12.1845 15.6932C12.1911 15.7021 12.203 15.7192 12.22 15.7436C12.4638 16.0934 13.7584 17.9507 15.6744 18.7781C16.1619 18.9887 16.5423 19.1142 16.8391 19.2083C17.3285 19.3638 17.7738 19.342 18.126 19.2893C18.5186 19.2307 19.3346 18.7952 19.5048 18.3181C19.6751 17.8409 19.6751 17.4317 19.6241 17.3465C19.5829 17.2777 19.4863 17.231 19.3433 17.1618C19.309 17.1452 19.272 17.1273 19.2326 17.1076Z" fill="white"/>
</svg>
